<mxfile host="app.diagrams.net" modified="2020-09-26T17:42:53.971Z" agent="5.0 (Windows NT 10.0; Win64; x64) AppleWebKit/537.36 (KHTML, like Gecko) Chrome/85.0.4183.121 Safari/537.36" etag="rWzVLayU304ZfFqfinnY" version="13.7.5" type="github">
  <diagram id="C5RBs43oDa-KdzZeNtuy" name="Page-1">
    <mxGraphModel dx="1242" dy="795" grid="0" gridSize="10" guides="0" tooltips="1" connect="1" arrows="1" fold="1" page="1" pageScale="1" pageWidth="827" pageHeight="1169" background="#ffffff" math="0" shadow="0">
      <root>
        <mxCell id="WIyWlLk6GJQsqaUBKTNV-0" />
        <mxCell id="WIyWlLk6GJQsqaUBKTNV-1" parent="WIyWlLk6GJQsqaUBKTNV-0" />
        <mxCell id="5PKe1Eey84K8PJHzmc6q-95" style="edgeStyle=orthogonalEdgeStyle;rounded=0;orthogonalLoop=1;jettySize=auto;html=1;" edge="1" parent="WIyWlLk6GJQsqaUBKTNV-1" source="WIyWlLk6GJQsqaUBKTNV-3" target="5PKe1Eey84K8PJHzmc6q-1">
          <mxGeometry relative="1" as="geometry" />
        </mxCell>
        <mxCell id="WIyWlLk6GJQsqaUBKTNV-3" value="LCD初期化" style="rounded=1;whiteSpace=wrap;html=1;fontSize=12;glass=0;strokeWidth=1;shadow=0;" parent="WIyWlLk6GJQsqaUBKTNV-1" vertex="1">
          <mxGeometry x="-460" y="240" width="96" height="40" as="geometry" />
        </mxCell>
        <mxCell id="5PKe1Eey84K8PJHzmc6q-92" style="edgeStyle=orthogonalEdgeStyle;rounded=0;orthogonalLoop=1;jettySize=auto;html=1;" edge="1" parent="WIyWlLk6GJQsqaUBKTNV-1" source="5PKe1Eey84K8PJHzmc6q-1" target="5PKe1Eey84K8PJHzmc6q-2">
          <mxGeometry relative="1" as="geometry" />
        </mxCell>
        <mxCell id="5PKe1Eey84K8PJHzmc6q-1" value="&lt;span&gt;LCDのバックライトの有効化&lt;/span&gt;" style="rounded=1;whiteSpace=wrap;html=1;arcSize=13;" vertex="1" parent="WIyWlLk6GJQsqaUBKTNV-1">
          <mxGeometry x="-320" y="240" width="110" height="40" as="geometry" />
        </mxCell>
        <mxCell id="5PKe1Eey84K8PJHzmc6q-94" style="edgeStyle=orthogonalEdgeStyle;rounded=0;orthogonalLoop=1;jettySize=auto;html=1;entryX=0;entryY=0.5;entryDx=0;entryDy=0;" edge="1" parent="WIyWlLk6GJQsqaUBKTNV-1" source="5PKe1Eey84K8PJHzmc6q-2" target="5PKe1Eey84K8PJHzmc6q-4">
          <mxGeometry relative="1" as="geometry" />
        </mxCell>
        <mxCell id="5PKe1Eey84K8PJHzmc6q-2" value="&lt;span&gt;LCDへグループ名・班番号を表示&lt;/span&gt;" style="rounded=1;whiteSpace=wrap;html=1;" vertex="1" parent="WIyWlLk6GJQsqaUBKTNV-1">
          <mxGeometry x="-170" y="240" width="120" height="40" as="geometry" />
        </mxCell>
        <mxCell id="5PKe1Eey84K8PJHzmc6q-8" style="edgeStyle=orthogonalEdgeStyle;rounded=0;orthogonalLoop=1;jettySize=auto;html=1;" edge="1" parent="WIyWlLk6GJQsqaUBKTNV-1" source="5PKe1Eey84K8PJHzmc6q-3" target="WIyWlLk6GJQsqaUBKTNV-3">
          <mxGeometry relative="1" as="geometry" />
        </mxCell>
        <mxCell id="5PKe1Eey84K8PJHzmc6q-3" value="電源ON" style="rounded=1;whiteSpace=wrap;html=1;" vertex="1" parent="WIyWlLk6GJQsqaUBKTNV-1">
          <mxGeometry x="-616" y="240" width="120" height="40" as="geometry" />
        </mxCell>
        <mxCell id="5PKe1Eey84K8PJHzmc6q-96" style="edgeStyle=orthogonalEdgeStyle;rounded=0;orthogonalLoop=1;jettySize=auto;html=1;entryX=0;entryY=0.5;entryDx=0;entryDy=0;" edge="1" parent="WIyWlLk6GJQsqaUBKTNV-1" source="5PKe1Eey84K8PJHzmc6q-4" target="5PKe1Eey84K8PJHzmc6q-5">
          <mxGeometry relative="1" as="geometry" />
        </mxCell>
        <mxCell id="5PKe1Eey84K8PJHzmc6q-4" value="2000ms待機" style="rounded=1;whiteSpace=wrap;html=1;" vertex="1" parent="WIyWlLk6GJQsqaUBKTNV-1">
          <mxGeometry x="-30" y="240" width="130" height="40" as="geometry" />
        </mxCell>
        <mxCell id="5PKe1Eey84K8PJHzmc6q-97" style="edgeStyle=orthogonalEdgeStyle;rounded=0;orthogonalLoop=1;jettySize=auto;html=1;entryX=0;entryY=0.5;entryDx=0;entryDy=0;" edge="1" parent="WIyWlLk6GJQsqaUBKTNV-1" source="5PKe1Eey84K8PJHzmc6q-5" target="5PKe1Eey84K8PJHzmc6q-13">
          <mxGeometry relative="1" as="geometry" />
        </mxCell>
        <mxCell id="5PKe1Eey84K8PJHzmc6q-5" value="スイッチの入力動作有効化設定" style="rounded=1;whiteSpace=wrap;html=1;" vertex="1" parent="WIyWlLk6GJQsqaUBKTNV-1">
          <mxGeometry x="140" y="240" width="120" height="40" as="geometry" />
        </mxCell>
        <mxCell id="5PKe1Eey84K8PJHzmc6q-7" value="" style="endArrow=classic;html=1;exitX=1;exitY=0.5;exitDx=0;exitDy=0;entryX=0;entryY=0.5;entryDx=0;entryDy=0;" edge="1" parent="WIyWlLk6GJQsqaUBKTNV-1" source="5PKe1Eey84K8PJHzmc6q-18" target="5PKe1Eey84K8PJHzmc6q-20">
          <mxGeometry width="50" height="50" relative="1" as="geometry">
            <mxPoint x="305" y="595" as="sourcePoint" />
            <mxPoint x="340" y="595" as="targetPoint" />
          </mxGeometry>
        </mxCell>
        <mxCell id="5PKe1Eey84K8PJHzmc6q-16" style="edgeStyle=orthogonalEdgeStyle;rounded=0;orthogonalLoop=1;jettySize=auto;html=1;exitX=0.5;exitY=1;exitDx=0;exitDy=0;entryX=0.5;entryY=0;entryDx=0;entryDy=0;" edge="1" parent="WIyWlLk6GJQsqaUBKTNV-1" source="5PKe1Eey84K8PJHzmc6q-13" target="5PKe1Eey84K8PJHzmc6q-14">
          <mxGeometry relative="1" as="geometry">
            <Array as="points">
              <mxPoint x="375" y="310" />
              <mxPoint x="-572" y="310" />
            </Array>
          </mxGeometry>
        </mxCell>
        <mxCell id="5PKe1Eey84K8PJHzmc6q-13" value="マイコンをSTAモードにする&lt;br&gt;（WiFi子機として設定）" style="rounded=1;whiteSpace=wrap;html=1;" vertex="1" parent="WIyWlLk6GJQsqaUBKTNV-1">
          <mxGeometry x="290" y="240" width="170" height="40" as="geometry" />
        </mxCell>
        <mxCell id="5PKe1Eey84K8PJHzmc6q-98" style="edgeStyle=orthogonalEdgeStyle;rounded=0;orthogonalLoop=1;jettySize=auto;html=1;entryX=0;entryY=0.5;entryDx=0;entryDy=0;" edge="1" parent="WIyWlLk6GJQsqaUBKTNV-1" source="5PKe1Eey84K8PJHzmc6q-14" target="5PKe1Eey84K8PJHzmc6q-18">
          <mxGeometry relative="1" as="geometry" />
        </mxCell>
        <mxCell id="5PKe1Eey84K8PJHzmc6q-14" value="WiFi切断" style="rounded=1;whiteSpace=wrap;html=1;" vertex="1" parent="WIyWlLk6GJQsqaUBKTNV-1">
          <mxGeometry x="-620" y="360" width="95" height="50" as="geometry" />
        </mxCell>
        <mxCell id="5PKe1Eey84K8PJHzmc6q-26" style="edgeStyle=orthogonalEdgeStyle;rounded=0;orthogonalLoop=1;jettySize=auto;html=1;exitX=0.5;exitY=1;exitDx=0;exitDy=0;entryX=0.5;entryY=0;entryDx=0;entryDy=0;" edge="1" parent="WIyWlLk6GJQsqaUBKTNV-1" source="5PKe1Eey84K8PJHzmc6q-18" target="5PKe1Eey84K8PJHzmc6q-25">
          <mxGeometry relative="1" as="geometry" />
        </mxCell>
        <mxCell id="5PKe1Eey84K8PJHzmc6q-18" value="WiFi接続開始" style="rhombus;whiteSpace=wrap;html=1;" vertex="1" parent="WIyWlLk6GJQsqaUBKTNV-1">
          <mxGeometry x="-490" y="350" width="140" height="70" as="geometry" />
        </mxCell>
        <mxCell id="5PKe1Eey84K8PJHzmc6q-99" style="edgeStyle=orthogonalEdgeStyle;rounded=0;orthogonalLoop=1;jettySize=auto;html=1;" edge="1" parent="WIyWlLk6GJQsqaUBKTNV-1" source="5PKe1Eey84K8PJHzmc6q-20">
          <mxGeometry relative="1" as="geometry">
            <mxPoint x="-480" y="260" as="targetPoint" />
            <Array as="points">
              <mxPoint x="-150" y="290" />
              <mxPoint x="-480" y="290" />
            </Array>
          </mxGeometry>
        </mxCell>
        <mxCell id="5PKe1Eey84K8PJHzmc6q-20" value="マイコンを再起動" style="rounded=1;whiteSpace=wrap;html=1;" vertex="1" parent="WIyWlLk6GJQsqaUBKTNV-1">
          <mxGeometry x="-210" y="370" width="120" height="30" as="geometry" />
        </mxCell>
        <mxCell id="5PKe1Eey84K8PJHzmc6q-23" value="disconnected" style="text;html=1;align=center;verticalAlign=middle;resizable=0;points=[];autosize=1;" vertex="1" parent="WIyWlLk6GJQsqaUBKTNV-1">
          <mxGeometry x="-360" y="360" width="90" height="20" as="geometry" />
        </mxCell>
        <mxCell id="5PKe1Eey84K8PJHzmc6q-100" style="edgeStyle=orthogonalEdgeStyle;rounded=0;orthogonalLoop=1;jettySize=auto;html=1;entryX=0;entryY=0.5;entryDx=0;entryDy=0;" edge="1" parent="WIyWlLk6GJQsqaUBKTNV-1" source="5PKe1Eey84K8PJHzmc6q-25" target="5PKe1Eey84K8PJHzmc6q-28">
          <mxGeometry relative="1" as="geometry" />
        </mxCell>
        <mxCell id="5PKe1Eey84K8PJHzmc6q-25" value="1000ms待機" style="rounded=1;whiteSpace=wrap;html=1;" vertex="1" parent="WIyWlLk6GJQsqaUBKTNV-1">
          <mxGeometry x="-480" y="460" width="120" height="60" as="geometry" />
        </mxCell>
        <mxCell id="5PKe1Eey84K8PJHzmc6q-27" value="connected" style="text;html=1;align=center;verticalAlign=middle;resizable=0;points=[];autosize=1;" vertex="1" parent="WIyWlLk6GJQsqaUBKTNV-1">
          <mxGeometry x="-400" y="410" width="70" height="20" as="geometry" />
        </mxCell>
        <mxCell id="5PKe1Eey84K8PJHzmc6q-102" style="edgeStyle=orthogonalEdgeStyle;rounded=0;orthogonalLoop=1;jettySize=auto;html=1;" edge="1" parent="WIyWlLk6GJQsqaUBKTNV-1" source="5PKe1Eey84K8PJHzmc6q-28" target="5PKe1Eey84K8PJHzmc6q-30">
          <mxGeometry relative="1" as="geometry" />
        </mxCell>
        <mxCell id="5PKe1Eey84K8PJHzmc6q-28" value="シリアルモニタへ&lt;br&gt;「接続完了」等の&lt;br&gt;表示" style="rounded=1;whiteSpace=wrap;html=1;" vertex="1" parent="WIyWlLk6GJQsqaUBKTNV-1">
          <mxGeometry x="-320" y="460" width="120" height="60" as="geometry" />
        </mxCell>
        <mxCell id="5PKe1Eey84K8PJHzmc6q-105" style="edgeStyle=orthogonalEdgeStyle;rounded=0;orthogonalLoop=1;jettySize=auto;html=1;entryX=0;entryY=0.5;entryDx=0;entryDy=0;" edge="1" parent="WIyWlLk6GJQsqaUBKTNV-1" source="5PKe1Eey84K8PJHzmc6q-30" target="5PKe1Eey84K8PJHzmc6q-33">
          <mxGeometry relative="1" as="geometry">
            <Array as="points">
              <mxPoint x="-90" y="560" />
              <mxPoint x="-640" y="560" />
              <mxPoint x="-640" y="670" />
            </Array>
          </mxGeometry>
        </mxCell>
        <mxCell id="5PKe1Eey84K8PJHzmc6q-30" value="日時・時刻合わせの設定" style="rounded=1;whiteSpace=wrap;html=1;" vertex="1" parent="WIyWlLk6GJQsqaUBKTNV-1">
          <mxGeometry x="-150" y="460" width="120" height="60" as="geometry" />
        </mxCell>
        <mxCell id="5PKe1Eey84K8PJHzmc6q-107" style="edgeStyle=orthogonalEdgeStyle;rounded=0;orthogonalLoop=1;jettySize=auto;html=1;entryX=0;entryY=0.5;entryDx=0;entryDy=0;" edge="1" parent="WIyWlLk6GJQsqaUBKTNV-1" source="5PKe1Eey84K8PJHzmc6q-33" target="5PKe1Eey84K8PJHzmc6q-34">
          <mxGeometry relative="1" as="geometry" />
        </mxCell>
        <mxCell id="5PKe1Eey84K8PJHzmc6q-33" value="SWの入力を受け取る変数を用意する" style="rounded=1;whiteSpace=wrap;html=1;" vertex="1" parent="WIyWlLk6GJQsqaUBKTNV-1">
          <mxGeometry x="-570" y="650" width="120" height="40" as="geometry" />
        </mxCell>
        <mxCell id="5PKe1Eey84K8PJHzmc6q-110" style="edgeStyle=orthogonalEdgeStyle;rounded=0;orthogonalLoop=1;jettySize=auto;html=1;entryX=0;entryY=0.5;entryDx=0;entryDy=0;" edge="1" parent="WIyWlLk6GJQsqaUBKTNV-1" source="5PKe1Eey84K8PJHzmc6q-34" target="5PKe1Eey84K8PJHzmc6q-36">
          <mxGeometry relative="1" as="geometry" />
        </mxCell>
        <mxCell id="5PKe1Eey84K8PJHzmc6q-34" value="日時・時刻取得" style="rounded=1;whiteSpace=wrap;html=1;" vertex="1" parent="WIyWlLk6GJQsqaUBKTNV-1">
          <mxGeometry x="-400" y="650" width="120" height="40" as="geometry" />
        </mxCell>
        <mxCell id="5PKe1Eey84K8PJHzmc6q-111" style="edgeStyle=orthogonalEdgeStyle;rounded=0;orthogonalLoop=1;jettySize=auto;html=1;entryX=0;entryY=0.5;entryDx=0;entryDy=0;" edge="1" parent="WIyWlLk6GJQsqaUBKTNV-1" source="5PKe1Eey84K8PJHzmc6q-36" target="5PKe1Eey84K8PJHzmc6q-38">
          <mxGeometry relative="1" as="geometry" />
        </mxCell>
        <mxCell id="5PKe1Eey84K8PJHzmc6q-36" value="日付・時刻を文字列として取得" style="rounded=1;whiteSpace=wrap;html=1;" vertex="1" parent="WIyWlLk6GJQsqaUBKTNV-1">
          <mxGeometry x="-240" y="650" width="120" height="40" as="geometry" />
        </mxCell>
        <mxCell id="5PKe1Eey84K8PJHzmc6q-112" style="edgeStyle=orthogonalEdgeStyle;rounded=0;orthogonalLoop=1;jettySize=auto;html=1;" edge="1" parent="WIyWlLk6GJQsqaUBKTNV-1" source="5PKe1Eey84K8PJHzmc6q-38" target="5PKe1Eey84K8PJHzmc6q-42">
          <mxGeometry relative="1" as="geometry" />
        </mxCell>
        <mxCell id="5PKe1Eey84K8PJHzmc6q-38" value="LCD初期化" style="rounded=1;whiteSpace=wrap;html=1;fontSize=12;glass=0;strokeWidth=1;shadow=0;" vertex="1" parent="WIyWlLk6GJQsqaUBKTNV-1">
          <mxGeometry x="-70" y="650" width="120" height="40" as="geometry" />
        </mxCell>
        <mxCell id="5PKe1Eey84K8PJHzmc6q-113" style="edgeStyle=orthogonalEdgeStyle;rounded=0;orthogonalLoop=1;jettySize=auto;html=1;entryX=0;entryY=0.5;entryDx=0;entryDy=0;" edge="1" parent="WIyWlLk6GJQsqaUBKTNV-1" source="5PKe1Eey84K8PJHzmc6q-42" target="5PKe1Eey84K8PJHzmc6q-45">
          <mxGeometry relative="1" as="geometry" />
        </mxCell>
        <mxCell id="5PKe1Eey84K8PJHzmc6q-42" value="LCDへ&lt;br&gt;日時・時刻表示" style="rounded=1;whiteSpace=wrap;html=1;" vertex="1" parent="WIyWlLk6GJQsqaUBKTNV-1">
          <mxGeometry x="100" y="650" width="120" height="40" as="geometry" />
        </mxCell>
        <mxCell id="5PKe1Eey84K8PJHzmc6q-115" style="edgeStyle=orthogonalEdgeStyle;rounded=0;orthogonalLoop=1;jettySize=auto;html=1;entryX=0.5;entryY=0;entryDx=0;entryDy=0;" edge="1" parent="WIyWlLk6GJQsqaUBKTNV-1" source="5PKe1Eey84K8PJHzmc6q-46" target="5PKe1Eey84K8PJHzmc6q-58">
          <mxGeometry relative="1" as="geometry" />
        </mxCell>
        <mxCell id="5PKe1Eey84K8PJHzmc6q-117" style="edgeStyle=orthogonalEdgeStyle;rounded=0;orthogonalLoop=1;jettySize=auto;html=1;" edge="1" parent="WIyWlLk6GJQsqaUBKTNV-1" source="5PKe1Eey84K8PJHzmc6q-46">
          <mxGeometry relative="1" as="geometry">
            <mxPoint x="-430" y="670" as="targetPoint" />
            <Array as="points">
              <mxPoint x="430" y="780" />
              <mxPoint x="430" y="600" />
              <mxPoint x="-430" y="600" />
            </Array>
          </mxGeometry>
        </mxCell>
        <mxCell id="5PKe1Eey84K8PJHzmc6q-46" value="もしSWが押された時" style="rhombus;whiteSpace=wrap;html=1;" vertex="1" parent="WIyWlLk6GJQsqaUBKTNV-1">
          <mxGeometry x="-640" y="740" width="160" height="80" as="geometry" />
        </mxCell>
        <mxCell id="5PKe1Eey84K8PJHzmc6q-114" style="edgeStyle=orthogonalEdgeStyle;rounded=0;orthogonalLoop=1;jettySize=auto;html=1;entryX=0.5;entryY=0;entryDx=0;entryDy=0;" edge="1" parent="WIyWlLk6GJQsqaUBKTNV-1" source="5PKe1Eey84K8PJHzmc6q-45" target="5PKe1Eey84K8PJHzmc6q-46">
          <mxGeometry relative="1" as="geometry">
            <mxPoint x="-550" y="740" as="targetPoint" />
            <Array as="points">
              <mxPoint x="330" y="710" />
              <mxPoint x="-560" y="710" />
            </Array>
          </mxGeometry>
        </mxCell>
        <mxCell id="5PKe1Eey84K8PJHzmc6q-45" value="100ms待機" style="rounded=1;whiteSpace=wrap;html=1;" vertex="1" parent="WIyWlLk6GJQsqaUBKTNV-1">
          <mxGeometry x="270" y="650" width="120" height="40" as="geometry" />
        </mxCell>
        <mxCell id="5PKe1Eey84K8PJHzmc6q-50" value="※時刻は約1秒ごとに更新" style="text;html=1;align=center;verticalAlign=middle;resizable=0;points=[];autosize=1;" vertex="1" parent="WIyWlLk6GJQsqaUBKTNV-1">
          <mxGeometry x="90" y="620" width="150" height="20" as="geometry" />
        </mxCell>
        <mxCell id="5PKe1Eey84K8PJHzmc6q-55" value="No(0)" style="text;html=1;align=center;verticalAlign=middle;resizable=0;points=[];autosize=1;" vertex="1" parent="WIyWlLk6GJQsqaUBKTNV-1">
          <mxGeometry x="-480" y="750" width="50" height="20" as="geometry" />
        </mxCell>
        <mxCell id="5PKe1Eey84K8PJHzmc6q-57" value="Yes(1)" style="text;html=1;align=center;verticalAlign=middle;resizable=0;points=[];autosize=1;" vertex="1" parent="WIyWlLk6GJQsqaUBKTNV-1">
          <mxGeometry x="-550" y="820" width="50" height="20" as="geometry" />
        </mxCell>
        <mxCell id="5PKe1Eey84K8PJHzmc6q-123" style="edgeStyle=orthogonalEdgeStyle;rounded=0;orthogonalLoop=1;jettySize=auto;html=1;entryX=0;entryY=0.5;entryDx=0;entryDy=0;" edge="1" parent="WIyWlLk6GJQsqaUBKTNV-1" source="5PKe1Eey84K8PJHzmc6q-58" target="5PKe1Eey84K8PJHzmc6q-121">
          <mxGeometry relative="1" as="geometry">
            <Array as="points">
              <mxPoint x="-500" y="899" />
            </Array>
          </mxGeometry>
        </mxCell>
        <mxCell id="5PKe1Eey84K8PJHzmc6q-58" value="5ms待機" style="rounded=1;whiteSpace=wrap;html=1;" vertex="1" parent="WIyWlLk6GJQsqaUBKTNV-1">
          <mxGeometry x="-620" y="880" width="120" height="39" as="geometry" />
        </mxCell>
        <mxCell id="5PKe1Eey84K8PJHzmc6q-124" style="edgeStyle=orthogonalEdgeStyle;rounded=0;orthogonalLoop=1;jettySize=auto;html=1;entryX=0;entryY=0.5;entryDx=0;entryDy=0;" edge="1" parent="WIyWlLk6GJQsqaUBKTNV-1" source="5PKe1Eey84K8PJHzmc6q-62" target="5PKe1Eey84K8PJHzmc6q-64">
          <mxGeometry relative="1" as="geometry" />
        </mxCell>
        <mxCell id="5PKe1Eey84K8PJHzmc6q-62" value="2000ms待機" style="rounded=1;whiteSpace=wrap;html=1;" vertex="1" parent="WIyWlLk6GJQsqaUBKTNV-1">
          <mxGeometry x="-280" y="880" width="120" height="40" as="geometry" />
        </mxCell>
        <mxCell id="5PKe1Eey84K8PJHzmc6q-125" style="edgeStyle=orthogonalEdgeStyle;rounded=0;orthogonalLoop=1;jettySize=auto;html=1;" edge="1" parent="WIyWlLk6GJQsqaUBKTNV-1" source="5PKe1Eey84K8PJHzmc6q-64" target="5PKe1Eey84K8PJHzmc6q-68">
          <mxGeometry relative="1" as="geometry" />
        </mxCell>
        <mxCell id="5PKe1Eey84K8PJHzmc6q-64" value="LCDに各センサ（体温・気温・脈拍）から取得した値を表示" style="rounded=1;whiteSpace=wrap;html=1;" vertex="1" parent="WIyWlLk6GJQsqaUBKTNV-1">
          <mxGeometry x="-110" y="870" width="170" height="60" as="geometry" />
        </mxCell>
        <mxCell id="5PKe1Eey84K8PJHzmc6q-126" style="edgeStyle=orthogonalEdgeStyle;rounded=0;orthogonalLoop=1;jettySize=auto;html=1;" edge="1" parent="WIyWlLk6GJQsqaUBKTNV-1" source="5PKe1Eey84K8PJHzmc6q-68">
          <mxGeometry relative="1" as="geometry">
            <mxPoint x="430" y="670" as="targetPoint" />
            <Array as="points">
              <mxPoint x="170" y="830" />
              <mxPoint x="490" y="830" />
            </Array>
          </mxGeometry>
        </mxCell>
        <mxCell id="5PKe1Eey84K8PJHzmc6q-68" value="5000ms待機" style="rounded=1;whiteSpace=wrap;html=1;" vertex="1" parent="WIyWlLk6GJQsqaUBKTNV-1">
          <mxGeometry x="110" y="870" width="120" height="60" as="geometry" />
        </mxCell>
        <mxCell id="5PKe1Eey84K8PJHzmc6q-72" value="時刻表示状態に戻る" style="text;html=1;align=center;verticalAlign=middle;resizable=0;points=[];autosize=1;" vertex="1" parent="WIyWlLk6GJQsqaUBKTNV-1">
          <mxGeometry x="230" y="840" width="120" height="20" as="geometry" />
        </mxCell>
        <mxCell id="5PKe1Eey84K8PJHzmc6q-122" style="edgeStyle=orthogonalEdgeStyle;rounded=0;orthogonalLoop=1;jettySize=auto;html=1;" edge="1" parent="WIyWlLk6GJQsqaUBKTNV-1" source="5PKe1Eey84K8PJHzmc6q-121" target="5PKe1Eey84K8PJHzmc6q-62">
          <mxGeometry relative="1" as="geometry">
            <mxPoint x="-230" y="897" as="targetPoint" />
            <Array as="points">
              <mxPoint x="-340" y="900" />
            </Array>
          </mxGeometry>
        </mxCell>
        <mxCell id="5PKe1Eey84K8PJHzmc6q-121" value="LCD初期化" style="rounded=1;whiteSpace=wrap;html=1;" vertex="1" parent="WIyWlLk6GJQsqaUBKTNV-1">
          <mxGeometry x="-460" y="879" width="120" height="40" as="geometry" />
        </mxCell>
      </root>
    </mxGraphModel>
  </diagram>
</mxfile>
